<svg xmlns="http://www.w3.org/2000/svg" xmlns:xlink="http://www.w3.org/1999/xlink" width="1024" height="1024" viewBox="0 0 1024 1024" fill="none"><path  transform="translate(100, 100)"   fill="#FFFFFF"  d="M0 624L0 200C0 89.543 89.543 0 200 0L624 0C734.457 0 824 89.543 824 200L824 624C824 734.457 734.457 824 624 824L200 824C89.543 824 0 734.457 0 624Z"></path><path     fill="#000000"  d="M371.52 609.08L460.441 634.61C460.661 634.673 460.787 634.902 460.724 635.121L451.471 666.995C451.408 667.213 451.18 667.339 450.962 667.276L330.531 632.892L267.262 669.322C267.066 669.435 266.815 669.368 266.7 669.172L249.986 640.576C249.871 640.379 249.938 640.126 250.135 640.011L284.954 619.765L270.354 615.304C270.139 615.238 270.016 615.012 270.078 614.796L279.334 582.614C279.397 582.394 279.627 582.268 279.847 582.333L325.943 595.953L355.92 578.552L259.992 573.081C259.759 573.068 259.583 572.864 259.605 572.632L260.483 562.982L202.877 659.716C202.763 659.908 202.515 659.974 202.32 659.864L173.365 643.478C173.164 643.365 173.095 643.109 173.212 642.91L237.848 532.759L226.939 532.759C226.712 532.759 226.528 532.577 226.526 532.351L226.228 498.976C226.226 498.75 226.406 498.564 226.632 498.56L258.648 497.957L271.495 476.587L221.024 474.145L213.451 515.865C213.41 516.09 213.193 516.239 212.968 516.196L180.13 509.939C179.908 509.897 179.761 509.684 179.801 509.462L189.796 453.237C189.814 453.136 189.869 453.046 189.949 452.983L207.446 439.435C207.523 439.375 207.618 439.345 207.715 439.349L237.848 440.564L229.589 408.815L197.578 411.226C197.35 411.243 197.152 411.072 197.135 410.844L194.747 377.472C194.731 377.247 194.899 377.05 195.124 377.032L466.242 354.508C466.468 354.49 466.667 354.657 466.687 354.883L469.673 388.558C469.693 388.786 469.524 388.986 469.296 389.005L264.46 405.762L274.248 442.09L305.449 443.617L296.1 416.529C296.026 416.315 296.139 416.081 296.353 416.006L328.612 404.678C328.827 404.602 329.063 404.715 329.138 404.931L343.073 444.838L385.897 446.364L411.373 405.501C411.494 405.308 411.748 405.249 411.941 405.37L440.609 423.252C440.801 423.371 440.861 423.624 440.742 423.817L425.968 447.891L463.115 449.41C463.224 449.415 463.328 449.463 463.402 449.544L479.693 467.308C479.764 467.386 479.803 467.488 479.801 467.593L478.893 525.932C478.889 526.161 478.699 526.344 478.47 526.338L444.426 525.443C444.199 525.437 444.019 525.249 444.024 525.022L444.933 483.304L310.955 477.809L299.331 497.652L425.248 496.13C425.477 496.128 425.664 496.311 425.666 496.539L425.964 529.906C425.966 530.133 425.784 530.319 425.557 530.322L278.837 532.149L274.248 539.17L414.344 547.395C414.526 547.406 414.679 547.534 414.721 547.712L422.227 579.474C422.269 579.651 422.189 579.835 422.032 579.926L371.52 609.08Z"></path><path     fill="#000000"  d="M807.6 400.85L807.6 637.24C807.6 637.344 807.561 637.445 807.49 637.521L790.609 655.698C790.541 655.771 790.449 655.817 790.35 655.827L638.968 671.826C638.737 671.85 638.532 671.68 638.513 671.448L635.618 635.123C635.6 634.9 635.763 634.703 635.986 634.68L770.434 620.67L770.434 399.846L520.218 390.156C519.99 390.147 519.812 389.955 519.822 389.726L521.426 352.41C521.436 352.183 521.627 352.007 521.854 352.015L850.946 364.36C851.171 364.368 851.347 364.555 851.343 364.779L850.697 402.106C850.693 402.337 850.5 402.52 850.268 402.511L807.6 400.85ZM573.062 590.733L551.078 454.911C551.059 454.789 551.094 454.665 551.176 454.573L570.326 432.786C570.408 432.692 570.529 432.641 570.653 432.646L722.214 438.982C722.34 438.987 722.456 439.05 722.53 439.152L739.086 461.931C739.153 462.023 739.179 462.139 739.157 462.251L716.516 581.059C716.499 581.148 716.454 581.228 716.387 581.289L699.495 596.49C699.429 596.55 699.346 596.586 699.258 596.594L592.992 606.603C592.886 606.613 592.78 606.581 592.697 606.515L573.212 590.989C573.132 590.925 573.078 590.834 573.062 590.733ZM606.643 567.144L682.946 560.449L699.063 476.127L591.175 472.112L606.643 567.144Z"></path></svg>