<svg xmlns="http://www.w3.org/2000/svg" xmlns:xlink="http://www.w3.org/1999/xlink" width="47.44599914550781" height="10.319999694824219" viewBox="0 0 47.44599914550781 10.319999694824219" fill="none"><path     fill="#000000"  d="M6.49 8.34L8.92858 9.04151C9.19431 9.11795 9.34755 9.39557 9.2706 9.66116L9.23867 9.77136C9.16201 10.036 8.88576 10.1887 8.6209 10.1129L5.15 9.12L3.50102 10.0713C3.26264 10.2089 2.95794 10.1279 2.81927 9.89018L2.76207 9.79212C2.62288 9.55351 2.70357 9.24723 2.94226 9.10816L3.66 8.69L3.63979 8.68381C3.37901 8.60398 3.23031 8.3299 3.30555 8.06776L3.3409 7.9446C3.41754 7.67762 3.69709 7.52427 3.96343 7.60312L5 7.91L5.98 7.34L3.16082 7.1789C2.97994 7.16857 2.8436 7.01043 2.86 6.83L2.86 6.83L1.22029 9.58888C1.08124 9.82284 0.780603 9.90261 0.543853 9.76837L0.441071 9.71009C0.198478 9.57254 0.115303 9.26311 0.256234 9.02247L2.12 5.84L2.12 5.84C1.91512 5.84 1.74853 5.67488 1.7467 5.47001L1.74442 5.21504C1.74197 4.94084 1.96081 4.71583 2.23497 4.71066L2.8 4.7L3.22 4L1.57 3.92L1.40997 4.80335C1.36042 5.07688 1.09727 5.25748 0.82422 5.20535L0.704764 5.18255C0.436019 5.13124 0.258418 4.87346 0.306213 4.60407L0.516355 3.41964C0.53801 3.29758 0.60423 3.18793 0.702168 3.11194L0.985747 2.89192C1.07891 2.81964 1.19461 2.78261 1.31243 2.78737L2.12 2.82L1.85 1.78L1.29059 1.82222C1.01445 1.84306 0.773963 1.63549 0.754233 1.35926L0.745208 1.23291C0.725697 0.959751 0.929552 0.721725 1.20246 0.699008L9.10432 0.0412605C9.37849 0.0184382 9.61959 0.221409 9.64385 0.495462L9.65564 0.628708C9.68009 0.905037 9.47491 1.14845 9.19843 1.17111L2.99 1.68L3.31 2.87L4.33 2.92L4.18176 2.48963C4.09225 2.22976 4.22928 1.94637 4.48855 1.85514L4.62693 1.80645C4.88797 1.7146 5.17397 1.85225 5.26503 2.11357L5.56 2.96L6.96 3.01L7.53532 2.08538C7.68141 1.85059 7.99035 1.77897 8.22485 1.92553L8.33982 1.99739C8.57249 2.14281 8.64451 2.44856 8.50119 2.68254L8.27 3.06L9.28211 3.10148C9.41517 3.10693 9.54056 3.16524 9.63048 3.26348L9.89581 3.55338C9.98199 3.64754 10.0289 3.7711 10.0269 3.89873L10.0079 5.12465C10.0035 5.40286 9.77291 5.62402 9.49476 5.6167L9.35755 5.61309C9.08239 5.60585 8.86483 5.37758 8.87082 5.1024L8.89 4.22L4.51 4.04L4.13 4.69L7.75845 4.64607C8.03519 4.64272 8.26201 4.86482 8.26448 5.14157L8.26555 5.26179C8.26801 5.53723 8.04724 5.76278 7.77181 5.76621L3.46 5.82L3.31 6.05L7.52821 6.29813C7.74883 6.31111 7.93476 6.46739 7.98549 6.68249L8.06471 7.01839C8.11535 7.23307 8.01932 7.45557 7.82838 7.566L6.49 8.34Z"></path><path     fill="#000000"  d="M21.78 1.838L21.78 8.70905C21.78 8.83681 21.7311 8.95973 21.6433 9.05256L21.3873 9.32333C21.3052 9.41022 21.1946 9.46479 21.0757 9.47715L17.1487 9.88515C16.8696 9.91414 16.6213 9.70788 16.5987 9.42823L16.5896 9.31592C16.5676 9.04479 16.7664 8.80583 17.037 8.77811L20.65 8.408L20.65 1.808L13.5325 1.53712C13.2555 1.52658 13.0399 1.29258 13.052 1.01558L13.0582 0.874054C13.0703 0.599533 13.3016 0.386173 13.5762 0.396303L22.6199 0.729919C22.8921 0.73996 23.1062 0.966016 23.1014 1.23835L23.099 1.37767C23.094 1.6578 22.8599 1.87922 22.58 1.86853L21.78 1.838ZM14.6184 7.32575L14.0189 3.68407C13.9943 3.5348 14.0386 3.38242 14.1395 3.26963L14.4126 2.96405C14.5123 2.85258 14.6566 2.79156 14.8059 2.7977L18.9508 2.96816C19.102 2.97438 19.2423 3.0488 19.3323 3.17054L19.5694 3.49133C19.6526 3.60392 19.6848 3.74623 19.6582 3.88367L19.0423 7.06121C19.0214 7.16936 18.9653 7.26757 18.8827 7.34057L18.6124 7.5797C18.5329 7.65007 18.433 7.69328 18.3272 7.70307L15.4479 7.96967C15.3208 7.98144 15.194 7.94414 15.0935 7.86541L14.8034 7.63815C14.7047 7.56088 14.6387 7.44939 14.6184 7.32575ZM15.67 6.808L17.99 6.608L18.48 4.088L15.2 3.968L15.67 6.808Z"></path><path     fill="#000000"  d="M26.6132 4.75227L26.87 4.732L26.6456 1.78709C26.6356 1.65571 26.6779 1.52568 26.7632 1.42528L27.0021 1.1442C27.0902 1.04057 27.2167 0.977294 27.3525 0.968965L33.4351 0.595796C33.5781 0.587024 33.718 0.640006 33.8193 0.741305L34.0984 1.02041C34.201 1.12303 34.254 1.26518 34.2436 1.40994L33.6942 9.02558C33.6851 9.15181 33.6284 9.26989 33.5357 9.356L33.2671 9.60545C33.1727 9.69309 33.0481 9.74093 32.9193 9.739L27.9595 9.66483C27.8374 9.66301 27.7202 9.61657 27.63 9.53427L27.3465 9.27565C27.2524 9.1898 27.1946 9.07128 27.1849 8.94427L26.95 5.862L26.7047 5.88189C26.4309 5.90409 26.1905 5.70124 26.1662 5.4276L26.1545 5.2948C26.13 5.01789 26.3361 4.77415 26.6132 4.75227ZM32.59 8.602L33.08 1.742L27.79 2.082L27.98 4.652L31.7105 4.34333C31.9862 4.32052 32.228 4.52586 32.2501 4.80158L32.26 4.92362C32.2821 5.19887 32.0769 5.43994 31.8016 5.46206L28.07 5.762L28.28 8.542L32.59 8.602Z"></path><path     fill="#000000"  d="M39.8857 10.1746L38.3141 9.92755C38.1705 9.90498 38.0439 9.82103 37.9671 9.69758L37.7497 9.34772C37.6725 9.22352 37.6535 9.07174 37.6978 8.93236L39.118 4.462L37.7511 4.19744C37.4791 4.1448 37.3018 3.88107 37.3556 3.60934L37.3812 3.48027C37.4347 3.21025 37.6964 3.03428 37.9667 3.08659L39.7354 3.42891C39.8769 3.45629 39.9996 3.54339 40.0723 3.66786L40.2669 4.00159C40.3377 4.1229 40.3542 4.26837 40.3123 4.40243L38.918 8.872L40.0631 9.05354C40.3363 9.09685 40.5224 9.35366 40.4785 9.62671L40.4571 9.76002C40.4134 10.032 40.1579 10.2174 39.8857 10.1746ZM39.5459 2.07147L37.9847 1.3099C37.7376 1.18934 37.6341 0.891859 37.7532 0.644005L37.8102 0.525406C37.9303 0.275438 38.2308 0.170949 38.4801 0.292531L40.0413 1.0541C40.2884 1.17465 40.3918 1.47214 40.2728 1.71999L40.2158 1.83859C40.0957 2.08856 39.7951 2.19305 39.5459 2.07147ZM41.9592 9.956L41.6705 9.69226C41.5788 9.60844 41.5216 9.49346 41.51 9.36974L41.0677 4.64265C41.0551 4.508 41.0976 4.37398 41.1855 4.27118L41.4399 3.97359C41.5281 3.87033 41.6546 3.80744 41.7902 3.79936L45.608 3.572L45.888 1.972L41.6744 1.48993C41.3963 1.45812 41.1985 1.20423 41.2357 0.926803L41.253 0.797664C41.2891 0.527866 41.5344 0.336544 41.8049 0.367221L46.3923 0.887533C46.5299 0.90314 46.6549 0.975112 46.7374 1.0863L46.9714 1.40152C47.0523 1.51046 47.0854 1.6476 47.0632 1.78146L46.687 4.0473C46.6682 4.16033 46.6112 4.26348 46.5255 4.3395L46.258 4.57668C46.1738 4.65137 46.0668 4.69545 45.9545 4.70179L42.228 4.912L42.608 8.932L45.878 8.852L46.2234 7.703C46.3032 7.4377 46.5834 7.28782 46.8483 7.36877L46.9714 7.40637C47.2349 7.48687 47.3836 7.76535 47.3039 8.02909L46.8842 9.41891C46.8542 9.51849 46.7938 9.6062 46.7115 9.66985L46.4374 9.88193C46.3533 9.94695 46.2507 9.9835 46.1445 9.98628L42.3095 10.0867C42.1802 10.0901 42.0546 10.0433 41.9592 9.956Z"></path></svg>